<svg xmlns="http://www.w3.org/2000/svg" width="342" height="50"><defs><clipPath id="a"><path data-name="長方形 288" fill="none" d="M0 0h342v50H0z"/></clipPath></defs><g data-name="グループ 188" clip-path="url(#a)"><path data-name="パス 275" d="M41.033 35.082c-.437 1.491-2.1 2.894-4.812 3.771a10.039 10.039 0 01-7.349-.351 21.845 21.845 0 008.574 3.684c4.987 1.14 10.936-.614 12.861-5.087s2.537-16.927 4.9-22.1c.612-1.4 2.1-2.807 4.812-3.771a10.039 10.039 0 017.349.351 21.845 21.845 0 00-8.574-3.684c-4.987-1.14-10.849.614-12.861 5s-3.325 16.664-4.9 22.1" fill="#a2d5d4"/><path data-name="パス 276" d="M62.206 35.082c-.437 1.491-2.1 2.894-4.812 3.771a10.039 10.039 0 01-7.349-.351 21.845 21.845 0 008.574 3.684c5.074 1.14 10.936-.614 12.861-5.087s2.537-16.927 4.9-22.1c.612-1.4 2.1-2.807 4.812-3.771a10.039 10.039 0 017.349.351 21.845 21.845 0 00-8.574-3.684c-4.987-1.14-10.849.614-12.861 5s-3.325 16.664-4.9 22.1" fill="#a2d5d4"/><path data-name="パス 277" d="M33.772 14.998c-1.662 5.438-2.625 16.927-4.9 22.1s-7.874 6.139-12.861 5.087a21.845 21.845 0 01-8.574-3.683 10.039 10.039 0 007.349.351c2.712-.965 4.375-2.28 4.812-3.771 1.575-5.438 2.625-16.927 4.9-22.1a9.894 9.894 0 015.774-5.087c4.112-1.228 9.449.7 9.449.7s-1.575-.439-3.5 1.491-1.925 3.333-2.45 4.911" fill="#a2d5d4"/><path data-name="長方形 287" fill="#1a1311" d="M98.427 14.559h4.724v20.838h-4.724z"/><path data-name="パス 278" d="M106.213 21.663h4.375l3.237 9.121 3.237-9.121h3.062l3.062 9.121 3.412-9.121h3.85l-5.335 13.77h-4.025l-2.712-7.893-2.8 7.893h-3.937z" fill="#1a1311"/><path data-name="パス 279" d="M132.198 31.924c0-3.245 3.325-3.859 6.124-4.21s2.537-.351 2.537-1.579-.7-1.666-2.1-1.666a3.06 3.06 0 00-3.062 1.579l-2.8-1.666c1.05-2.1 3.5-3.157 6.387-3.157s5.862 1.666 5.862 5.438v8.681h-4.2v-1.841a4.372 4.372 0 01-4.2 2.28c-2.8 0-4.549-1.491-4.549-3.859m8.662-1.579v-1.491c-.35.7-.962.877-2.1 1.052s-2.537.351-2.537 1.754.612 1.579 1.925 1.579a2.453 2.453 0 002.712-2.807" fill="#1a1311"/><path data-name="パス 280" d="M149.784 21.663h1.487a8.729 8.729 0 002.8-.263v2.543a5.246 5.246 0 014.813-2.629 4.2 4.2 0 014.287 2.807 5.422 5.422 0 015.073-2.807c2.887 0 4.724 1.666 4.724 5v9.121h-4.284v-8.159c0-1.666-.7-2.28-1.925-2.28a3.738 3.738 0 00-3.237 3.771v6.665h-4.287v-8.156c0-1.666-.7-2.28-1.925-2.28a3.738 3.738 0 00-3.237 3.771v6.665h-4.289z" fill="#1a1311"/><path data-name="パス 281" d="M176.643 28.504a7.624 7.624 0 0115.223 0 7.624 7.624 0 01-15.223 0m10.849 0a3.237 3.237 0 10-6.474 0 3.251 3.251 0 106.474 0" fill="#1a1311"/><path data-name="パス 282" d="M196.678 30.082v-5.087h-2.362v-2.893h.262a3.593 3.593 0 003.412-3.947v-.789h.175a10.125 10.125 0 002.8-.263v4.561h4.987v3.333h-4.987v5.788c0 1.14.525 1.754 1.312 1.754s1.487-.7 1.925-1.666l2.887 1.842a5.161 5.161 0 01-4.987 3.07 5.22 5.22 0 01-5.512-5.613" fill="#1a1311"/><path data-name="パス 283" d="M209.102 28.504a7.624 7.624 0 0115.223 0 7.624 7.624 0 01-15.223 0m10.849 0a3.237 3.237 0 10-6.474 0 3.251 3.251 0 106.474 0" fill="#1a1311"/><path data-name="パス 284" d="M247.948 26.659h-7.437v8.77h-4.724v-20.87h4.724v8.507h7.437v-8.507h4.725v20.874h-4.725z" fill="#1a1311"/><path data-name="パス 285" d="M256.61 31.924c0-3.245 3.325-3.859 6.124-4.21s2.537-.351 2.537-1.579-.7-1.666-2.1-1.666a3.06 3.06 0 00-3.062 1.579l-2.887-1.579c1.05-2.1 3.5-3.157 6.387-3.157s5.862 1.666 5.862 5.438v8.682h-4.2v-1.929a4.372 4.372 0 01-4.2 2.28c-2.8 0-4.55-1.491-4.55-3.859m8.662-1.579v-1.49c-.35.7-.962.877-2.1 1.052s-2.537.351-2.537 1.754.612 1.579 1.925 1.579a2.453 2.453 0 002.712-2.807" fill="#1a1311"/><path data-name="パス 286" d="M277.87 35.082l-5.6-13.419h4.375l3.5 9.034 3.587-9.034h3.85l-8.4 20.347h-4.287z" fill="#1a1311"/><path data-name="パス 287" d="M289.331 31.924c0-3.245 3.325-3.859 6.124-4.21s2.537-.351 2.537-1.579-.7-1.666-2.1-1.666a3.06 3.06 0 00-3.062 1.579l-2.8-1.666c1.05-2.1 3.5-3.157 6.387-3.157s5.862 1.666 5.862 5.438v8.681h-4.2v-1.841a4.372 4.372 0 01-4.2 2.28c-2.8 0-4.55-1.491-4.55-3.859m8.662-1.579v-1.491c-.35.7-.962.877-2.1 1.052s-2.537.351-2.537 1.754.612 1.579 1.925 1.579a2.453 2.453 0 002.712-2.807" fill="#1a1311"/><path data-name="パス 288" d="M308.054 30.082v-5.087h-2.362v-2.893h.263a3.593 3.593 0 003.412-3.947v-.789h.175a10.125 10.125 0 002.8-.263v4.561h4.987v3.333h-4.987v5.788c0 1.14.525 1.754 1.312 1.754s1.487-.7 1.925-1.666l2.887 1.842a5.161 5.161 0 01-4.987 3.07 5.22 5.22 0 01-5.512-5.613" fill="#1a1311"/><path data-name="パス 289" d="M320.477 28.592a7.446 7.446 0 017.262-7.192c3.85 0 6.912 3.157 6.912 7.893h-9.886a3.415 3.415 0 003.675 3.245 3.061 3.061 0 003.15-1.842l2.975 1.666c-1.05 2.017-3.15 3.42-6.3 3.42s-7.787-3.157-7.787-7.192m4.375-1.579h5.512a2.716 2.716 0 00-2.625-2.807 2.822 2.822 0 00-2.8 2.807" fill="#1a1311"/></g></svg>