<svg xmlns="http://www.w3.org/2000/svg" width="351" height="49.997"><path d="M81.56 18.749h5.39v23.71h-5.39zM90.466 26.795h5l3.672 10.39 3.75-10.39h3.437l3.594 10.39 3.827-10.39h4.375l-6.093 15.7h-4.532l-3.2-8.984-3.2 8.984h-4.453zM120.152 38.514c0-3.672 3.828-4.375 6.953-4.765 1.953-.234 2.89-.391 2.89-1.8s-.781-1.875-2.422-1.875a3.517 3.517 0 00-3.437 1.8l-3.281-1.8c1.25-2.422 4.062-3.594 7.265-3.594s6.718 1.875 6.718 6.172v9.843h-4.764V40.31a5 5 0 01-4.844 2.578c-2.344 0-5.156-1.641-5.156-4.375m9.921-1.8v-1.715c-.469.781-1.094.937-2.344 1.172s-2.89.391-2.89 1.953.7 1.8 2.187 1.8a2.982 2.982 0 003.125-3.125M140.151 26.796h1.719a10 10 0 003.2-.312v2.89a6.015 6.015 0 015.471-2.967 4.877 4.877 0 014.922 3.2 6.131 6.131 0 015.781-3.2 5.377 5.377 0 015.39 5.7v10.39h-4.922v-9.3c0-1.953-.781-2.656-2.187-2.656a4.209 4.209 0 00-3.672 4.3v7.578h-4.922v-9.217c0-1.953-.781-2.656-2.187-2.656a4.209 4.209 0 00-3.672 4.3v7.578h-4.921zM170.774 34.605c0-4.375 4.062-8.2 8.671-8.2s8.75 3.828 8.75 8.2-4.062 8.2-8.75 8.2-8.671-3.828-8.671-8.2m12.421 0a3.7 3.7 0 10-7.343 0 3.7 3.7 0 107.343 0M193.586 36.404v-5.859h-2.656v-3.206h.234a4.144 4.144 0 003.906-4.453v-.937h.234a11.562 11.562 0 003.2-.312v5.156h5.7v3.75h-5.7v6.64c0 1.328.625 2.031 1.484 2.031s1.719-.859 2.266-1.953l3.359 2.109a5.937 5.937 0 01-5.7 3.515c-3.75 0-6.25-2.5-6.25-6.406M207.804 34.605c0-4.375 4.062-8.2 8.671-8.2s8.75 3.828 8.75 8.2-3.984 8.2-8.75 8.2a8.565 8.565 0 01-8.671-8.2m12.421 0a3.7 3.7 0 10-7.343 0 3.7 3.7 0 107.343 0M252.177 32.576h-8.516v9.921h-5.39V18.749h5.39v9.609h8.515v-9.609h5.39v23.749h-5.39zM261.942 38.514c0-3.672 3.828-4.375 6.953-4.765 1.953-.234 2.891-.391 2.891-1.8s-.781-1.875-2.422-1.875a3.517 3.517 0 00-3.437 1.8l-3.2-1.8c1.25-2.422 3.984-3.594 7.265-3.594s6.718 1.875 6.718 6.172v9.843h-4.768V40.31a5 5 0 01-4.844 2.578c-2.344 0-5.156-1.641-5.156-4.375m9.921-1.8v-1.715c-.469.781-1.094.937-2.344 1.172s-2.891.391-2.891 1.953.7 1.8 2.187 1.8a2.982 2.982 0 003.125-3.125M286.238 42.107l-6.328-15.312h4.922l3.984 10.312 4.062-10.312h4.453l-9.531 23.2h-4.922zM299.362 38.514c0-3.672 3.828-4.375 6.953-4.765 1.953-.234 2.89-.391 2.89-1.8s-.781-1.875-2.422-1.875a3.517 3.517 0 00-3.437 1.8l-3.281-1.8c1.25-2.422 3.984-3.594 7.265-3.594s6.718 1.875 6.718 6.172v9.843h-4.686V40.31c-.859 1.719-2.5 2.578-4.844 2.578s-5.156-1.641-5.156-4.375m9.921-1.8v-1.715c-.469.781-1.094.937-2.344 1.172s-2.89.391-2.89 1.953.7 1.8 2.187 1.8a2.982 2.982 0 003.125-3.125M320.611 36.404v-5.859h-2.656v-3.206h.234a4.144 4.144 0 003.906-4.453v-.937h.234a11.562 11.562 0 003.2-.312v5.156h5.7v3.75h-5.7v6.64c0 1.328.625 2.031 1.484 2.031s1.719-.859 2.266-1.953l3.359 2.109a5.937 5.937 0 01-5.7 3.515c-3.75 0-6.25-2.5-6.25-6.406M334.829 34.683a8.437 8.437 0 018.281-8.2c4.375 0 7.89 3.594 7.89 8.984h-11.249a3.906 3.906 0 004.14 3.75 3.574 3.574 0 003.594-2.109l3.359 1.875c-1.172 2.344-3.594 3.906-7.187 3.906-5.078 0-8.906-3.594-8.906-8.125m4.922-1.8h6.25a3.088 3.088 0 00-3.047-3.2 3.323 3.323 0 00-3.2 3.2"/><g><path d="M21.093 38.045L9.765.156 0 0l12.031 38.279c.469.859 1.953 3.672 3.2 4.375a2.187 2.187 0 001.016.234c2.031 0 4.844-2.5 5.156-2.812l.469-.469zM34.139 0h-9.765l12.734 38.2 2.266 2.89 2.109 2.656.859.625 3.75-5.7z" fill="#6fb2af"/><path d="M19.999 45.623c-3.984 0-6.328-2.187-7.968-7.422l-1.016-3.359a5.859 5.859 0 005.547 3.828c2.187 0 3.515-3.828 3.515-3.828S27.03 14.3 29.215 7.422C30.074 4.844 31.559 0 37.261 0s8.984 4.844 9.921 7.422c0 0-2.187-2.969-5.156-3.047s-3.75 2.031-4.14 3.359L28.045 38.2c-1.641 4.765-4.531 7.422-8.046 7.422M44.998 45.623c-3.984 0-6.328-2.187-7.968-7.422l-1.016-3.359a5.859 5.859 0 005.547 3.828c2.187 0 3.515-3.828 3.515-3.828s6.953-20.542 9.218-27.42C55.154 4.844 56.638 0 62.341 0s8.984 4.765 9.843 7.422c0 0-2.187-2.969-5.156-3.047s-3.75 2.031-4.14 3.359L53.044 38.2c-1.641 4.765-4.531 7.422-8.046 7.422" fill="#a2d5d4"/></g></svg>