<svg xmlns="http://www.w3.org/2000/svg" width="254" height="36"><g fill="#fff"><path d="M59.3 13.42h3.895v17.133H59.3zM65.735 19.234h3.613l2.653 7.508 2.71-7.508h2.484l2.6 7.508 2.766-7.508h3.161l-4.4 11.347h-3.274l-2.314-6.492-2.315 6.492h-3.224zM87.186 27.702c0-2.653 2.766-3.161 5.024-3.444 1.411-.169 2.089-.282 2.089-1.3s-.569-1.349-1.75-1.349a2.541 2.541 0 00-2.484 1.3l-2.37-1.3c.9-1.75 2.935-2.6 5.25-2.6s4.855 1.355 4.855 4.46v7.113h-3.443v-1.581a3.615 3.615 0 01-3.5 1.863c-1.694 0-3.726-1.185-3.726-3.161m7.169-1.3v-1.241c-.339.565-.79.677-1.694.847s-2.089.282-2.089 1.411.508 1.3 1.581 1.3a2.155 2.155 0 002.258-2.258M101.638 19.235h1.242a7.226 7.226 0 002.314-.226v2.089a4.347 4.347 0 013.952-2.145 3.524 3.524 0 013.556 2.314 4.43 4.43 0 014.177-2.314 3.885 3.885 0 013.9 4.121v7.508h-3.561v-6.718c0-1.411-.565-1.919-1.581-1.919a3.041 3.041 0 00-2.653 3.1v5.476h-3.556v-6.657c0-1.411-.564-1.919-1.581-1.919a3.041 3.041 0 00-2.653 3.1v5.476h-3.556zM123.767 24.879a6.266 6.266 0 016.266-5.927c3.331 0 6.323 2.766 6.323 5.927a6.306 6.306 0 01-12.589 0m8.976 0a2.672 2.672 0 10-2.653 2.992 2.776 2.776 0 002.653-2.992M140.25 26.178v-4.234h-1.919V19.63h.169a2.994 2.994 0 002.823-3.218v-.677h.169a8.356 8.356 0 002.315-.226v3.726h4.124v2.71h-4.121v4.8c0 .96.452 1.468 1.073 1.468s1.242-.621 1.637-1.411l2.427 1.524a4.553 4.553 0 01-8.637-2.089M150.525 24.879a6.266 6.266 0 016.266-5.927c3.331 0 6.323 2.766 6.323 5.927a6.306 6.306 0 01-12.589 0m8.976 0a2.672 2.672 0 10-2.653 2.992 2.777 2.777 0 002.653-2.992M182.589 23.412h-6.148v7.169h-3.9V13.42h3.9v6.943h6.153V13.42h3.9v17.161h-3.9zM189.645 27.702c0-2.653 2.766-3.161 5.024-3.444 1.411-.169 2.089-.282 2.089-1.3s-.565-1.349-1.75-1.349a2.541 2.541 0 00-2.484 1.3l-2.314-1.3c.9-1.75 2.879-2.6 5.25-2.6s4.855 1.355 4.855 4.46v7.113h-3.444v-1.581a3.615 3.615 0 01-3.5 1.863c-1.693 0-3.726-1.185-3.726-3.161m7.169-1.3v-1.241c-.339.565-.79.677-1.694.847s-2.089.282-2.089 1.411.508 1.3 1.581 1.3a2.155 2.155 0 002.258-2.258M207.201 30.298l-4.572-11.064h3.556l2.879 7.452 2.935-7.452h3.218L208.329 36h-3.556zM216.685 27.702c0-2.653 2.766-3.161 5.024-3.444 1.411-.169 2.089-.282 2.089-1.3s-.565-1.349-1.75-1.349a2.541 2.541 0 00-2.484 1.3l-2.371-1.3c.9-1.75 2.879-2.6 5.25-2.6s4.855 1.355 4.855 4.46v7.113h-3.387v-1.581a3.562 3.562 0 01-3.5 1.863c-1.693 0-3.726-1.185-3.726-3.161m7.169-1.3v-1.241c-.339.565-.79.677-1.694.847s-2.089.282-2.089 1.411.508 1.3 1.581 1.3a2.155 2.155 0 002.258-2.258M232.04 26.178v-4.234h-1.919V19.63h.169a2.994 2.994 0 002.823-3.218v-.677h.169a8.355 8.355 0 002.314-.226v3.726h4.125v2.71H235.6v4.8c0 .96.452 1.468 1.073 1.468s1.242-.621 1.637-1.411l2.427 1.524a4.553 4.553 0 01-8.637-2.089M242.314 24.936a6.1 6.1 0 015.984-5.927c3.161 0 5.7 2.6 5.7 6.492h-8.129a2.823 2.823 0 002.989 2.708 2.583 2.583 0 002.6-1.524l2.427 1.355a5.412 5.412 0 01-5.193 2.823c-3.669 0-6.435-2.6-6.435-5.871m3.556-1.3h4.516a2.231 2.231 0 00-2.2-2.314 2.4 2.4 0 00-2.315 2.314"/></g><path d="M15.242 27.378L7.056.112 0 0l8.693 27.547c.339.618 1.411 2.642 2.314 3.148a1.586 1.586 0 00.734.169c1.468 0 3.5-1.8 3.726-2.024l.339-.34zM24.669 0h-7.056l9.2 27.495 1.637 2.08 1.524 1.912.621.45 2.71-4.1z" fill="#6fb2af"/><path d="M14.452 32.84c-2.879 0-4.573-1.575-5.758-5.342L7.96 25.08a4.233 4.233 0 004.008 2.755c1.581 0 2.54-2.755 2.54-2.755s5.024-14.789 6.6-19.738C21.729 3.486 22.802 0 26.922 0s6.492 3.486 7.169 5.342c0 0-1.581-2.137-3.726-2.193a2.839 2.839 0 00-2.992 2.418L20.266 27.5c-1.185 3.43-3.274 5.342-5.814 5.342M32.516 32.84c-2.879 0-4.573-1.575-5.758-5.342l-.734-2.418a4.233 4.233 0 004.008 2.755c1.581 0 2.54-2.755 2.54-2.755s5.024-14.79 6.662-19.738C39.854 3.486 40.924 0 45.048 0s6.492 3.43 7.113 5.342c0 0-1.581-2.137-3.726-2.193a2.839 2.839 0 00-2.992 2.418L38.33 27.5c-1.185 3.43-3.274 5.342-5.814 5.342" fill="#a2d5d4"/></svg>